
<svg version="1.1" xmlns="http://www.w3.org/2000/svg" xmlns:xlink="http://www.w3.org/1999/xlink" preserveAspectRatio="xMidYMid meet" viewBox="0 0 84 84" width="84" height="84"><defs><path d="M50 28.2C50 27 50 26.33 50 26.2C50 23.44 47.76 21.2 45 21.2C44.4 21.2 39.6 21.2 39 21.2C36.24 21.2 34 23.44 34 26.2C34 26.33 34 27 34 28.2C28.6 28.2 25.6 28.2 25 28.2C22.24 28.2 20 30.44 20 33.2C20 35.1 20 50.3 20 52.2C20 54.95 22.24 57.2 25 57.2C28.4 57.2 55.6 57.2 59 57.2C61.76 57.2 64 54.95 64 52.2C64 50.3 64 35.1 64 33.2C64 30.44 61.76 28.2 59 28.2C57.8 28.2 54.8 28.2 50 28.2ZM39 23.2C39.6 23.2 44.4 23.2 45 23.2C46.65 23.2 48 24.54 48 26.2C48 26.33 48 27 48 28.2L36 28.2L36 26.2C36.9 24.2 37.9 23.2 39 23.2ZM59 55.2C55.6 55.2 28.4 55.2 25 55.2C23.35 55.2 22 53.85 22 52.2C22 50.3 22 35.1 22 33.2C22 31.54 23.35 30.2 25 30.2C28.4 30.2 55.6 30.2 59 30.2C60.65 30.2 62 31.54 62 33.2C62 34.46 62 40.8 62 52.2C61.1 54.2 60.1 55.2 59 55.2Z" id="b44Avni7I5"></path><path d="M32 44.2L32 52.2L34 52.2L34 44.2L32 44.2Z" id="c1hWqI2kcq"></path><path d="M38 41.2L38 52.2L40 52.2L40 41.2L38 41.2Z" id="c4bJYh7bf6"></path><path d="M44 38.2L44 52.2L46 52.2L46 38.2L44 38.2Z" id="e2P9I2hbx8"></path><path d="M50 35.2L50 52.2L52 52.2L52 35.2L50 35.2Z" id="a7Ks7gb8zg"></path><path d="M69.51 10.8C62.16 4.48 52.6 0.65 42.15 0.65C18.95 0.65 0.15 19.46 0.15 42.65C0.15 53.11 3.98 62.66 10.3 70.01" id="eZQMzKign"></path><path d="M14.37 73.62C21.76 80.08 31.42 84 42 84C65.2 84 84 65.2 84 42C84 31.42 80.08 21.76 73.62 14.37" id="h11DmJDpuQ"></path></defs><g><g><g><use xlink:href="#b44Avni7I5" opacity="1" fill="#3fa9f5" fill-opacity="1"></use><g><use xlink:href="#b44Avni7I5" opacity="1" fill-opacity="0" stroke="#000000" stroke-width="1" stroke-opacity="0"></use></g></g><g><use xlink:href="#c1hWqI2kcq" opacity="1" fill="#3fa9f5" fill-opacity="1"></use><g><use xlink:href="#c1hWqI2kcq" opacity="1" fill-opacity="0" stroke="#000000" stroke-width="1" stroke-opacity="0"></use></g></g><g><use xlink:href="#c4bJYh7bf6" opacity="1" fill="#3fa9f5" fill-opacity="1"></use><g><use xlink:href="#c4bJYh7bf6" opacity="1" fill-opacity="0" stroke="#000000" stroke-width="1" stroke-opacity="0"></use></g></g><g><use xlink:href="#e2P9I2hbx8" opacity="1" fill="#3fa9f5" fill-opacity="1"></use><g><use xlink:href="#e2P9I2hbx8" opacity="1" fill-opacity="0" stroke="#000000" stroke-width="1" stroke-opacity="0"></use></g></g><g><use xlink:href="#a7Ks7gb8zg" opacity="1" fill="#3fa9f5" fill-opacity="1"></use><g><use xlink:href="#a7Ks7gb8zg" opacity="1" fill-opacity="0" stroke="#000000" stroke-width="1" stroke-opacity="0"></use></g></g><g><use xlink:href="#eZQMzKign" opacity="1" fill="#000000" fill-opacity="0"></use><g><use xlink:href="#eZQMzKign" opacity="1" fill-opacity="0" stroke="#70cf29" stroke-width="1" stroke-opacity="1"></use></g></g><g><use xlink:href="#h11DmJDpuQ" opacity="1" fill="#000000" fill-opacity="0"></use><g><use xlink:href="#h11DmJDpuQ" opacity="1" fill-opacity="0" stroke="#3fa9f5" stroke-width="1" stroke-opacity="1"></use></g></g></g></g></svg>